<?xml version="1.0" standalone="no"?>
<!DOCTYPE svg PUBLIC "-//W3C//DTD SVG 20010904//EN"
 "http://www.w3.org/TR/2001/REC-SVG-20010904/DTD/svg10.dtd">
<svg version="1.0" xmlns="http://www.w3.org/2000/svg"
 width="300.000000pt" height="300.000000pt" viewBox="0 0 300.000000 300.000000"
 preserveAspectRatio="xMidYMid meet">
<g transform="translate(0.000000,300.000000) scale(0.100000,-0.100000)"
fill="currentColor" stroke="none">
<path d="M1470 2585 c-7 -8 -17 -12 -24 -8 -6 3 -8 3 -4 -1 4 -5 2 -20 -3 -34
-7 -17 -6 -29 1 -36 7 -7 10 -5 10 8 0 9 4 15 9 12 9 -6 21 22 26 57 3 21 1
21 -15 2z"/>
<path d="M1713 2560 c3 -11 1 -23 -4 -26 -5 -3 -9 4 -9 15 0 12 -7 21 -16 21
-9 0 -12 -5 -8 -12 5 -8 2 -9 -12 -4 -15 6 -15 3 5 -18 25 -27 67 -32 76 -8 2
7 0 10 -5 7 -6 -3 -10 5 -10 19 0 14 -5 26 -11 26 -6 0 -9 -9 -6 -20z"/>
<path d="M1343 2540 c-3 -11 -9 -20 -14 -20 -5 0 -9 -5 -9 -10 0 -7 6 -7 20 0
11 6 19 16 17 23 -1 7 4 11 11 9 8 -1 11 2 7 8 -10 16 -26 11 -32 -10z"/>
<path d="M1630 2543 c0 -12 28 -38 34 -32 2 2 -5 13 -15 23 -11 11 -19 15 -19
9z"/>
<path d="M1810 2531 c0 -6 -8 -20 -17 -30 -20 -23 -26 -51 -11 -51 6 0 8 6 5
14 -5 14 23 18 33 5 3 -4 11 -1 18 7 11 12 8 14 -14 14 -26 0 -26 1 -10 19 11
12 14 21 7 26 -6 3 -11 1 -11 -4z"/>
<path d="M1285 2500 c4 -6 1 -19 -6 -28 -11 -13 -8 -12 9 2 26 22 28 36 6 36
-8 0 -12 -5 -9 -10z"/>
<path d="M1116 2461 c-4 -5 3 -7 14 -4 16 4 20 0 21 -23 0 -28 1 -28 10 -6 5
13 7 28 3 33 -7 12 -41 12 -48 0z"/>
<path d="M1879 2446 c14 -16 6 -40 -10 -31 -5 4 -9 1 -9 -4 0 -13 17 -14 24
-2 10 15 56 -1 75 -25 21 -26 31 -31 27 -11 -7 30 -20 47 -37 47 -10 0 -19 4
-19 10 0 5 -7 7 -15 4 -8 -4 -15 -2 -15 4 0 5 -7 13 -16 16 -14 5 -15 4 -5 -8z"/>
<path d="M1120 2401 c-6 -12 -7 -21 -1 -21 10 0 24 30 17 37 -2 3 -9 -5 -16
-16z"/>
<path d="M1040 2396 c0 -7 10 -16 23 -20 37 -10 42 -7 19 14 -25 23 -42 26
-42 6z"/>
<path d="M1321 2373 c1 -5 1 -15 0 -23 -1 -12 -3 -12 -10 -2 -6 10 -10 9 -14
-7 -6 -25 -7 -25 38 -4 34 16 51 41 20 29 -8 -3 -15 -1 -15 4 0 6 -4 10 -10
10 -5 0 -9 -3 -9 -7z"/>
<path d="M1230 2361 c0 -5 -10 -12 -22 -16 -41 -11 -68 -28 -68 -42 0 -8 -4
-12 -8 -9 -9 5 -42 -29 -42 -43 0 -5 6 -12 13 -15 6 -3 2 -4 -10 -3 -12 1 -29
-7 -37 -18 -9 -11 -16 -14 -16 -7 0 17 -30 15 -30 -3 0 -8 -4 -15 -10 -15 -5
0 -10 14 -10 30 l0 30 -22 -22 c-13 -13 -22 -29 -20 -35 2 -7 -2 -13 -8 -13
-6 0 -9 -4 -6 -8 7 -12 64 -6 80 8 17 14 28 -1 15 -20 -5 -8 -9 -12 -9 -7 0
15 -35 -30 -53 -67 -20 -43 -31 -142 -17 -151 6 -3 11 0 12 7 0 7 2 18 2 23 1
6 5 16 10 24 7 11 6 12 -5 6 -11 -7 -11 -5 1 9 8 10 15 24 16 30 0 6 2 21 2
32 1 12 15 35 30 50 16 16 38 45 51 66 12 20 28 39 37 42 8 3 13 10 10 15 -7
11 42 54 86 77 27 14 32 14 54 -1 13 -8 24 -11 24 -6 0 6 -8 15 -17 20 -16 10
-16 11 5 17 17 5 20 9 11 15 -8 5 -17 3 -21 -4 -6 -9 -8 -9 -8 1 0 6 -4 12
-10 12 -5 0 -10 -4 -10 -9z"/>
<path d="M1690 2360 c13 -8 13 -10 -2 -10 -9 0 -20 -5 -23 -10 -4 -7 2 -9 18
-4 22 5 25 3 20 -14 -3 -12 1 -22 11 -25 13 -5 15 -2 10 20 -5 17 -3 24 4 19
6 -3 14 -1 18 5 4 8 3 9 -4 5 -7 -4 -12 -2 -12 4 0 6 -4 8 -10 5 -5 -3 -10 -1
-10 4 0 6 -8 11 -17 11 -15 0 -16 -2 -3 -10z"/>
<path d="M1818 2339 c19 -17 31 -33 28 -37 -4 -3 -12 0 -18 6 -17 17 -33 15
-19 -2 6 -8 23 -16 37 -19 19 -3 24 -1 19 11 -5 13 -3 13 17 -1 13 -8 22 -20
21 -26 -2 -6 4 -11 12 -11 8 0 15 -7 15 -15 0 -8 5 -15 11 -15 5 0 7 -6 3 -12
-4 -7 -4 -10 1 -6 4 4 19 -1 33 -12 13 -11 28 -17 33 -14 5 3 12 -2 15 -10 3
-9 11 -13 17 -9 6 4 8 0 4 -11 -4 -10 -3 -15 3 -11 6 3 10 1 10 -5 0 -11 9
-24 45 -64 18 -20 22 -31 28 -71 1 -5 7 -13 12 -17 6 -5 9 -68 8 -164 -1 -86
0 -155 2 -153 23 23 23 282 1 359 -18 61 -77 162 -83 143 -6 -17 -50 15 -129
94 -34 33 -65 59 -68 56 -3 -3 -12 1 -20 8 -35 32 -46 39 -58 39 -7 0 2 -14
20 -31z"/>
<path d="M969 2343 c-1 -5 -1 -11 0 -15 0 -5 -5 -8 -12 -8 -18 0 -47 -32 -47
-51 0 -8 6 -3 13 10 15 30 59 44 84 26 15 -11 15 -15 4 -29 -8 -9 -9 -16 -3
-16 6 0 13 -8 15 -17 3 -10 5 2 6 25 1 36 -3 45 -20 49 -12 3 -18 11 -15 19 3
8 -1 14 -9 14 -8 0 -16 -3 -16 -7z"/>
<path d="M1590 2324 c0 -14 4 -23 10 -19 6 3 10 15 10 26 0 10 -4 19 -10 19
-5 0 -10 -12 -10 -26z"/>
<path d="M1630 2316 c0 -11 30 -39 36 -34 2 3 -5 13 -16 23 -11 10 -20 15 -20
11z"/>
<path d="M1436 2303 c-2 -3 7 -15 21 -28 23 -19 31 -20 55 -11 30 11 38 26 14
26 -8 0 -16 3 -19 8 -2 4 -2 2 -1 -5 5 -20 -26 -23 -45 -4 -11 11 -22 17 -25
14z"/>
<path d="M2020 2260 c0 -14 5 -18 16 -13 13 5 15 2 10 -14 -7 -23 18 -52 29
-33 3 5 1 10 -4 10 -6 0 -11 10 -11 23 0 12 -9 28 -20 35 -17 11 -20 10 -20
-8z"/>
<path d="M1140 2245 c-16 -19 -10 -19 26 0 25 13 26 15 8 15 -12 0 -27 -7 -34
-15z"/>
<path d="M1990 2150 c0 -5 9 -10 21 -10 11 0 17 5 14 10 -3 6 -13 10 -21 10
-8 0 -14 -4 -14 -10z"/>
<path d="M917 2143 c-3 -5 -15 -55 -28 -113 -21 -98 -21 -113 -10 -225 6 -66
12 -137 13 -159 0 -26 3 -34 9 -25 11 17 12 126 1 133 -13 8 -13 68 0 84 10
12 10 14 0 8 -21 -13 -27 23 -6 39 11 8 14 14 7 15 -14 0 -18 42 -6 53 3 4 8
24 10 44 2 21 13 52 24 69 11 18 16 35 10 38 -5 3 -7 15 -4 26 5 19 -11 28
-20 13z"/>
<path d="M2006 2121 c-8 -13 15 -62 39 -83 11 -10 15 -17 10 -18 -6 0 -17 6
-24 13 -11 10 -12 9 -5 -3 4 -8 11 -33 14 -54 3 -22 11 -42 20 -44 13 -4 13
-3 2 11 -8 9 -11 21 -7 27 14 23 13 54 -2 84 -10 17 -16 36 -15 42 3 16 -25
37 -32 25z"/>
<path d="M2022 1970 c0 -19 2 -27 5 -17 2 9 2 25 0 35 -3 9 -5 1 -5 -18z"/>
<path d="M2080 1926 c0 -20 2 -36 4 -36 8 0 12 61 4 66 -4 3 -8 -11 -8 -30z"/>
<path d="M1140 1840 c-14 -4 -24 -11 -23 -16 1 -5 -11 -10 -25 -11 -26 -1 -75
-49 -66 -64 2 -4 17 0 33 9 16 9 27 20 25 24 -3 4 10 4 28 1 18 -4 45 -8 61
-8 15 0 27 -3 27 -6 0 -4 21 -7 48 -7 26 0 64 -3 85 -6 24 -4 36 -2 32 4 -10
16 7 12 27 -7 17 -15 20 -15 28 -3 6 8 10 22 10 30 0 13 -1 13 -10 0 -9 -13
-10 -13 -11 0 -1 8 -1 19 0 23 1 5 -4 5 -10 1 -6 -3 -15 0 -20 7 -7 11 -9 9
-9 -6 0 -12 -3 -16 -8 -8 -9 15 -115 45 -134 38 -8 -3 -25 -2 -39 3 -13 5 -35
6 -49 2z m25 -20 c-28 -12 -37 -12 -30 0 3 6 16 10 28 9 21 0 21 -1 2 -9z m91
-25 c18 -15 18 -15 -5 -13 -14 2 -26 9 -29 16 -5 17 10 15 34 -3z"/>
<path d="M1815 1804 c14 -11 14 -12 0 -18 -9 -3 -14 -2 -11 3 13 20 -73 24
-118 5 -12 -4 -17 -4 -13 2 3 5 -6 9 -20 8 -13 0 -28 -6 -33 -13 -4 -7 -10 -9
-12 -5 -3 5 -3 2 0 -6 3 -8 4 -23 4 -33 -1 -14 2 -16 12 -8 8 6 20 9 27 7 35
-12 89 -15 120 -5 46 13 150 13 159 -1 4 -7 11 -11 16 -10 4 1 11 -7 15 -17 4
-10 8 -14 8 -9 1 6 8 1 16 -10 14 -18 15 -17 8 11 -7 32 -27 58 -37 48 -3 -4
-6 1 -6 9 0 14 -10 19 -62 33 -5 2 -14 3 -20 4 -10 1 -10 3 1 10 8 5 -2 8 -28
7 -34 0 -39 -3 -26 -12z"/>
<path d="M836 1693 c-3 -10 -3 -31 0 -47 4 -21 0 -32 -16 -43 -11 -8 -20 -21
-20 -29 0 -11 5 -10 22 6 l23 21 16 -20 c24 -29 30 -14 10 22 -9 18 -17 49
-16 69 0 40 -10 50 -19 21z"/>
<path d="M1124 1691 c-29 -18 -52 -41 -40 -41 3 0 21 10 41 21 20 12 51 25 68
29 l32 8 -35 1 c-19 0 -49 -8 -66 -18z"/>
<path d="M1319 1669 c24 -17 45 -29 47 -26 6 6 -62 57 -77 57 -7 0 7 -14 30
-31z"/>
<path d="M1703 1674 c-18 -9 -33 -21 -33 -26 0 -5 -3 -7 -7 -5 -5 3 -17 0 -28
-4 -18 -9 -18 -9 2 -5 25 4 40 -8 23 -19 -17 -11 -11 -20 14 -20 17 0 21 3 15
11 -6 8 -4 14 7 18 16 6 33 -8 34 -26 0 -16 73 -8 85 9 14 19 37 9 28 -12 -3
-11 -1 -13 10 -9 8 3 31 -2 52 -10 44 -19 45 -19 45 -6 0 6 -8 14 -17 17 -10
4 -37 19 -61 34 -58 37 -109 45 -157 25 -49 -21 -57 -13 -14 13 53 33 146 22
185 -20 10 -11 28 -26 39 -31 19 -11 19 -10 4 13 -25 37 -70 58 -135 64 -44 4
-67 2 -91 -11z"/>
<path d="M1200 1673 c-8 -3 -34 -13 -57 -24 -24 -10 -47 -19 -52 -19 -5 0 -13
-6 -19 -12 -8 -10 1 -13 41 -13 29 0 61 -4 72 -9 16 -6 15 -3 -5 13 -21 18
-23 22 -10 31 11 7 19 5 29 -10 19 -28 76 -27 91 1 9 16 14 18 26 8 12 -10 12
-14 2 -20 -8 -6 -1 -9 20 -9 44 0 33 16 -32 46 -50 23 -76 28 -106 17z"/>
<path d="M1282 1580 c-12 -5 -52 -15 -88 -21 -36 -6 -63 -14 -60 -16 8 -8 138
18 166 33 28 15 17 17 -18 4z"/>
<path d="M2151 1553 c-11 -18 -21 -38 -20 -45 0 -7 4 -4 8 7 13 30 65 32 85 3
11 -16 16 -18 16 -7 0 8 -15 29 -34 45 l-33 30 -22 -33z"/>
<path d="M1682 1565 c9 -9 167 -55 192 -55 26 0 11 14 -17 16 -19 2 -97 21
-162 41 -11 3 -17 2 -13 -2z"/>
<path d="M818 1500 c-1 -27 0 -59 3 -72 5 -20 7 -19 14 12 4 19 13 47 21 61
10 20 10 29 1 38 -23 23 -35 11 -39 -39z"/>
<path d="M2181 1491 c-11 -7 -11 -15 -2 -41 6 -18 11 -44 11 -58 0 -50 11 -13
14 47 4 62 1 67 -23 52z"/>
<path d="M786 1383 c-7 -52 -4 -74 14 -130 24 -74 50 -121 50 -90 0 10 -10 37
-22 60 -14 29 -23 69 -27 132 l-6 90 -9 -62z"/>
<path d="M854 1405 c-3 -19 0 -74 7 -122 7 -49 13 -106 12 -128 -1 -22 1 -31
4 -20 3 11 12 28 20 37 15 16 9 43 -7 33 -4 -3 -6 15 -5 40 2 25 0 43 -5 40
-5 -3 -8 31 -6 75 2 83 -8 106 -20 45z"/>
<path d="M1348 1430 c-26 -16 -62 -70 -46 -70 7 1 25 19 40 40 15 22 27 40 25
40 -1 0 -10 -5 -19 -10z"/>
<path d="M1630 1426 c0 -4 9 -19 20 -33 11 -14 20 -39 20 -55 0 -24 -6 -32
-30 -41 -31 -12 -37 -21 -21 -31 31 -19 83 73 63 111 -12 22 -52 59 -52 49z"/>
<path d="M1559 1418 c-7 -25 -3 -48 8 -48 15 0 18 36 3 45 -5 3 -10 5 -11 3z"/>
<path d="M2137 1396 c-4 -9 -4 -30 -1 -46 5 -25 3 -31 -17 -39 -13 -5 -19 -10
-12 -10 12 -1 15 -61 3 -61 -4 0 -5 -11 -3 -25 3 -13 0 -38 -5 -54 -15 -43 5
-51 22 -10 8 18 12 44 10 57 -3 13 0 38 5 57 6 24 6 35 -2 39 -7 2 -2 5 10 5
20 1 22 5 17 44 -7 48 -18 66 -27 43z"/>
<path d="M2222 1345 c-7 -14 -12 -46 -12 -71 0 -28 -7 -57 -18 -72 -10 -15
-24 -40 -31 -56 -11 -26 -10 -28 3 -17 29 24 64 115 68 179 2 34 4 62 3 62 -1
0 -7 -11 -13 -25z"/>
<path d="M1372 1344 c-27 -19 -20 -36 14 -29 79 16 76 15 64 30 -16 19 -50 19
-78 -1z"/>
<path d="M1540 1345 c-17 -20 -10 -26 39 -32 41 -6 53 5 29 25 -25 19 -55 23
-68 7z"/>
<path d="M1320 1323 c0 -17 29 -43 48 -42 13 0 11 3 -5 9 -12 5 -26 17 -32 27
-6 10 -11 13 -11 6z"/>
<path d="M1414 1246 c4 -15 1 -28 -6 -32 -7 -5 -9 -2 -6 8 4 8 3 20 -1 27 -6
8 -13 4 -25 -15 -10 -14 -13 -23 -7 -20 6 4 11 2 11 -4 0 -7 -6 -10 -14 -7
-19 8 -42 -18 -25 -28 6 -4 14 -3 18 2 3 5 15 9 26 8 11 0 30 6 43 14 16 10
22 10 22 1 0 -22 45 -6 48 18 3 22 1 23 -32 16 -35 -6 -42 -1 -37 29 0 4 -4 7
-10 7 -7 0 -9 -10 -5 -24z"/>
<path d="M1530 1239 c0 -9 -7 -22 -15 -29 -25 -21 -17 -30 29 -30 45 0 66 12
45 26 -8 4 -9 3 -5 -4 9 -15 4 -15 -29 2 -14 8 -22 15 -16 17 7 3 7 9 1 19 -8
13 -10 13 -10 -1z"/>
<path d="M1613 1208 c1 -24 6 -38 14 -38 7 0 13 5 13 11 0 5 5 7 11 3 8 -4 7
0 -1 15 -6 12 -15 19 -20 16 -5 -3 -11 3 -13 12 -3 10 -5 1 -4 -19z"/>
<path d="M1263 1196 c-13 -6 -23 -16 -23 -23 0 -7 -3 -12 -7 -12 -29 5 -53 -3
-53 -17 0 -8 -4 -12 -10 -9 -5 3 -12 -12 -16 -34 -4 -23 -10 -38 -15 -35 -5 3
-6 -1 -4 -8 3 -8 -4 -24 -15 -36 -11 -12 -16 -22 -10 -22 6 0 13 7 16 15 4 8
11 12 17 8 6 -3 7 -1 3 5 -4 7 -1 12 8 12 9 0 16 4 16 9 0 5 3 18 6 28 5 15 4
16 -6 3 -10 -13 -11 -12 -6 3 3 10 6 21 6 23 0 3 5 2 10 -1 6 -3 10 -1 10 5 0
6 5 8 10 5 6 -3 10 1 10 9 0 9 5 16 11 16 5 0 7 -4 4 -10 -3 -5 -1 -10 5 -10
19 0 60 48 60 70 0 11 -1 19 -2 19 -2 -1 -13 -6 -25 -13z"/>
<path d="M1690 1177 c0 -23 26 -57 44 -57 21 0 97 -54 95 -68 -4 -24 2 -45 10
-36 23 23 11 94 -15 94 -8 0 -14 6 -14 13 0 16 -67 50 -81 41 -5 -3 -16 0 -24
6 -8 7 -15 10 -15 7z"/>
<path d="M2029 1138 c0 -7 -2 -21 -4 -30 -2 -10 1 -20 6 -24 5 -3 9 11 9 30 0
33 -9 52 -11 24z"/>
<path d="M1460 1133 c0 -5 -15 -10 -32 -11 -18 -1 -49 -6 -68 -12 -47 -13 -55
-13 -41 4 10 12 8 13 -8 9 -12 -3 -18 -9 -15 -14 3 -5 -8 -9 -24 -9 -29 0 -58
-21 -46 -33 3 -3 16 -2 28 2 11 5 30 5 41 0 30 -11 35 -11 29 5 -18 46 325 25
419 -26 26 -13 34 -2 13 21 -15 17 -68 36 -88 32 -5 0 -8 4 -8 9 0 7 -7 7 -20
0 -11 -6 -24 -8 -29 -5 -12 7 -69 16 -101 17 -14 0 -31 4 -37 10 -8 6 -13 7
-13 1z"/>
<path d="M880 1100 c-4 -27 -1 -75 8 -115 6 -22 10 -34 11 -27 1 18 27 -7 34
-34 3 -14 5 -12 6 9 0 15 6 27 11 27 6 0 10 5 10 11 0 8 -5 7 -15 -1 -9 -7
-17 -11 -18 -9 -9 11 -36 98 -40 124 -2 17 -5 23 -7 15z"/>
<path d="M993 1091 c-10 -16 -9 -20 4 -25 20 -8 21 -6 14 22 -6 22 -6 22 -18
3z"/>
<path d="M2103 1078 c-4 -7 -8 -15 -9 -18 -6 -27 -28 -70 -35 -70 -5 0 -9 -16
-9 -35 0 -25 -4 -33 -13 -29 -8 3 -20 -2 -27 -11 -11 -14 -11 -16 1 -13 9 2
15 -7 17 -24 2 -19 -1 -28 -11 -28 -11 0 -13 7 -10 23 5 22 5 22 -10 2 -9 -12
-11 -22 -6 -26 6 -3 9 -12 7 -20 -4 -18 -21 -38 -29 -33 -4 2 -10 -7 -13 -21
-4 -14 -14 -25 -22 -25 -10 0 -14 -6 -11 -14 3 -8 -5 -19 -18 -26 -14 -7 -23
-16 -21 -19 1 -3 -5 -14 -16 -23 -10 -10 -18 -16 -18 -13 0 2 -12 -7 -26 -20
-15 -14 -30 -23 -33 -21 -4 3 -7 -3 -8 -13 -1 -10 4 -18 12 -18 7 0 11 6 8 14
-3 9 0 11 10 7 10 -3 20 3 27 16 8 15 18 20 31 17 10 -3 17 -2 15 2 -3 4 4 14
15 21 10 8 19 20 19 27 0 7 9 18 20 25 11 7 20 16 20 20 0 4 10 19 21 32 31
36 89 146 89 169 0 6 7 18 15 26 12 14 38 131 29 131 -2 0 -6 -6 -11 -12z"/>
<path d="M1056 1054 c-9 -23 -2 -28 13 -10 7 8 8 17 3 20 -6 3 -13 -1 -16 -10z"/>
<path d="M1911 1037 c-8 -16 -9 -30 -2 -47 l10 -25 2 25 c1 14 1 28 0 33 0 4
3 7 8 7 5 0 11 7 15 15 9 24 -19 17 -33 -8z"/>
<path d="M933 1036 c3 -8 1 -17 -6 -20 -7 -3 -3 -5 7 -3 25 3 32 23 10 31 -11
4 -15 2 -11 -8z"/>
<path d="M1993 1042 c-14 -9 -12 -61 3 -55 6 2 11 17 10 33 -1 17 -1 30 -1 30
0 0 -5 -4 -12 -8z"/>
<path d="M1422 982 c-8 -25 -8 -30 3 -26 18 7 25 28 15 43 -5 9 -11 3 -18 -17z"/>
<path d="M1954 984 c-4 -14 -3 -29 2 -34 5 -5 10 6 11 26 2 40 -4 44 -13 8z"/>
<path d="M1016 978 c-4 -9 -3 -24 2 -34 12 -22 21 -5 12 26 -6 21 -8 22 -14 8z"/>
<path d="M1080 975 c0 -7 -3 -15 -7 -18 -5 -2 -2 -2 6 0 9 2 12 -4 9 -22 -3
-13 -2 -22 3 -20 4 3 9 -1 12 -7 2 -7 6 6 8 29 4 34 1 43 -13 46 -11 3 -18 0
-18 -8z"/>
<path d="M1577 976 c-3 -8 1 -17 9 -20 9 -4 14 1 14 14 0 23 -15 27 -23 6z"/>
<path d="M1522 970 c2 -11 -5 -14 -28 -13 -19 2 -37 -4 -44 -12 -11 -13 -10
-14 4 -9 9 4 16 1 16 -6 0 -10 3 -10 15 0 9 7 15 8 15 2 0 -5 8 -8 18 -5 18 4
23 35 8 50 -4 5 -6 1 -4 -7z"/>
<path d="M1857 959 c6 -6 9 -18 6 -27 -4 -10 -2 -13 5 -8 18 11 14 33 -5 41
-14 5 -15 3 -6 -6z"/>
<path d="M954 912 c-6 -9 -9 -26 -7 -37 2 -11 5 -26 5 -32 1 -7 5 -13 8 -13 4
0 10 -13 13 -29 4 -17 31 -55 61 -88 31 -32 56 -64 56 -71 0 -7 5 -10 11 -7 5
4 18 0 27 -7 9 -8 24 -18 32 -22 8 -4 5 1 -7 12 -27 24 -30 42 -5 42 14 0 15
2 2 10 -11 7 -19 5 -27 -7 -12 -15 -13 -15 -13 4 0 18 -18 34 -42 37 -3 1 -10
5 -15 10 -4 5 -3 6 3 3 15 -9 27 20 12 29 -6 4 -8 3 -4 -4 4 -6 -1 -10 -12 -9
-12 1 -19 8 -18 22 1 11 -3 21 -8 22 -18 3 -54 82 -52 113 3 37 -6 46 -20 22z"/>
<path d="M1453 899 c-1 -10 2 -19 8 -19 11 0 12 27 1 34 -4 2 -9 -4 -9 -15z"/>
<path d="M1829 898 c-1 -7 -1 -19 0 -25 1 -7 -7 -13 -19 -13 -21 0 -27 -15 -9
-26 8 -4 8 -9 0 -17 -14 -14 -14 -27 -1 -27 5 0 13 12 16 28 4 15 10 32 14 37
14 20 19 45 10 50 -6 4 -11 0 -11 -7z"/>
<path d="M1063 863 c-16 -6 -17 -49 -2 -59 8 -4 9 0 4 15 -3 11 -2 21 3 21 6
0 12 7 16 15 6 15 1 17 -21 8z"/>
<path d="M1384 837 c0 -14 -6 -33 -14 -43 -14 -17 -14 -18 2 -6 13 10 17 10
21 0 2 -8 8 -9 13 -4 5 5 4 11 -4 13 -10 4 -10 8 0 21 8 10 9 13 1 9 -7 -5
-13 1 -16 13 -4 16 -4 15 -3 -3z"/>
<path d="M1234 826 c-9 -23 0 -51 15 -51 8 0 17 7 19 15 5 13 3 13 -11 1 -15
-12 -17 -11 -17 6 0 10 5 24 12 31 9 9 9 12 0 12 -7 0 -15 -6 -18 -14z"/>
<path d="M1302 805 c-6 -14 -8 -25 -3 -25 8 0 23 41 17 47 -1 2 -8 -8 -14 -22z"/>
<path d="M1603 802 c0 -22 3 -30 10 -23 7 7 7 18 0 33 -10 22 -11 21 -10 -10z"/>
<path d="M1877 812 c-25 -27 -21 -36 5 -12 12 11 19 22 16 25 -2 3 -12 -3 -21
-13z"/>
<path d="M1734 786 c-9 -20 -9 -23 2 -19 8 3 14 14 14 24 0 25 -3 24 -16 -5z"/>
<path d="M928 774 c-11 -11 -10 -62 1 -66 9 -3 1 -28 -33 -123 -8 -20 -8 -20
9 0 16 20 16 20 36 -5 69 -85 142 -150 224 -197 100 -57 253 -133 269 -133 8
0 19 -6 26 -14 6 -8 18 -12 26 -9 8 3 -63 43 -163 93 -179 89 -243 133 -309
211 -50 60 -55 73 -68 166 -6 47 -14 81 -18 77z"/>
<path d="M1945 623 c-19 -126 -124 -233 -325 -334 -44 -22 -80 -45 -80 -51 0
-6 6 -6 15 2 9 7 38 23 65 36 103 48 194 108 252 167 61 63 94 112 90 134 -5
26 17 21 27 -7 20 -59 19 -29 -2 35 -12 36 -24 65 -28 65 -4 0 -10 -21 -14
-47z"/>
<path d="M1199 566 c7 -8 9 -21 5 -28 -5 -9 -2 -8 12 2 10 8 20 15 22 16 1 0
-10 6 -25 13 -23 11 -25 10 -14 -3z"/>
<path d="M2024 529 c4 -13 11 -37 16 -54 4 -16 8 -22 9 -12 1 9 6 17 12 17 6
0 3 7 -5 16 -18 18 -21 34 -6 34 6 0 10 -4 10 -8 0 -5 20 -9 45 -9 25 0 45 1
45 3 0 1 -21 7 -48 13 -26 5 -56 13 -66 17 -17 6 -18 4 -12 -17z"/>
<path d="M815 532 c-11 -2 -51 -14 -90 -27 -38 -13 -123 -38 -187 -56 -65 -18
-118 -36 -118 -41 0 -4 -13 -8 -29 -8 -32 0 -205 -59 -197 -67 4 -5 89 21 144
43 18 8 41 14 51 14 10 0 31 7 47 15 18 9 32 11 38 5 5 -5 22 -3 43 5 19 8 37
14 41 14 20 -3 25 3 12 12 -12 8 -7 9 18 6 17 -2 32 0 32 4 0 4 26 15 58 24
31 9 62 21 68 26 6 5 13 6 16 3 3 -3 22 2 41 10 34 14 36 14 39 -7 3 -20 4
-20 9 4 6 26 2 28 -36 21z"/>
<path d="M2095 490 c-14 -5 -8 -8 25 -13 25 -3 46 -4 48 -3 8 9 -55 22 -73 16z"/>
<path d="M2268 478 c11 -14 11 -16 -7 -11 -12 3 -21 1 -21 -5 0 -11 89 -34
102 -26 4 3 14 2 21 -3 14 -9 29 -12 75 -17 18 -2 41 -11 52 -21 15 -13 30
-16 62 -12 24 3 35 3 26 0 -18 -4 -25 -22 -10 -24 4 0 23 -2 42 -4 19 -2 60
-6 90 -9 52 -4 110 -20 110 -30 0 -2 -9 -2 -20 1 -32 8 -23 -5 13 -20 18 -8
40 -22 50 -31 16 -16 17 -16 17 4 0 13 -5 20 -12 18 -7 -3 -21 6 -31 19 -37
47 -141 82 -179 62 -17 -9 -20 -9 -15 3 4 11 -13 21 -71 38 -43 12 -90 26
-105 31 -15 5 -42 6 -60 3 -20 -4 -27 -2 -20 3 8 6 -2 13 -33 22 -25 7 -48 11
-51 7 -3 -3 -13 0 -22 7 -14 10 -14 10 -3 -5z m72 -18 c11 -7 7 -10 -17 -10
-18 0 -33 5 -33 10 0 13 30 13 50 0z"/>
<path d="M880 358 c17 -32 36 -61 43 -65 13 -8 -39 85 -60 107 -7 8 0 -11 17
-42z"/>
<path d="M435 341 c-6 -11 9 -23 19 -14 9 9 7 23 -3 23 -6 0 -12 -4 -16 -9z"/>
<path d="M335 328 c-11 -7 -36 -15 -55 -19 l-35 -7 36 -1 c23 -1 46 6 60 19
27 22 24 25 -6 8z"/>
<path d="M460 311 c0 -5 7 -14 15 -21 16 -14 18 -10 9 14 -6 17 -24 22 -24 7z"/>
<path d="M184 299 c-3 -5 9 -9 25 -9 17 0 31 2 31 4 0 8 -51 13 -56 5z"/>
<path d="M64 285 c-4 -8 -12 -15 -19 -15 -8 0 -17 -4 -20 -10 -4 -7 2 -7 18
-1 14 6 28 7 32 3 3 -3 3 1 0 10 -4 11 0 18 12 21 17 4 17 5 0 6 -10 0 -20 -6
-23 -14z"/>
<path d="M500 267 c0 -10 10 -27 23 -39 12 -13 21 -26 20 -30 -1 -3 4 -9 12
-12 25 -9 16 17 -20 58 -24 27 -35 34 -35 23z"/>
<path d="M2750 265 c-7 -9 -11 -17 -9 -19 7 -7 49 13 49 24 0 15 -26 12 -40
-5z"/>
<path d="M110 255 c-7 -8 -21 -15 -32 -15 -10 0 -16 -4 -13 -10 3 -5 9 -10 13
-10 12 1 55 40 50 45 -3 3 -11 -1 -18 -10z"/>
<path d="M2880 262 c0 -16 13 -22 26 -12 8 8 16 6 27 -4 8 -8 17 -12 21 -9 3
4 6 2 6 -4 0 -6 9 -13 20 -16 28 -7 25 -3 -20 27 -38 25 -80 35 -80 18z"/>
<path d="M1470 198 c-30 -11 -40 -25 -40 -59 0 -51 60 -77 93 -41 39 43 -2
120 -53 100z m38 -30 c17 -17 15 -43 -4 -59 -31 -26 -70 25 -44 56 15 18 32
19 48 3z"/>
<path d="M2856 184 c-8 -21 -3 -26 17 -18 9 3 13 12 10 20 -7 19 -19 18 -27
-2z"/>
<path d="M580 183 c1 -14 24 -39 53 -57 38 -26 34 -15 -13 28 -22 20 -40 33
-40 29z"/>
<path d="M60 175 c0 -3 13 -23 29 -43 16 -20 35 -54 42 -74 20 -57 29 -45 10
12 -10 29 -31 64 -49 81 -18 16 -32 27 -32 24z"/>
</g>
</svg>
