<?xml version="1.0" encoding="utf-8"?>
<svg xmlns="http://www.w3.org/2000/svg" viewBox="28.0414 0.3847 443.9172 499.2307" width="443.917px" height="499.231px" preserveAspectRatio="none"><path d="M 471.95 147.137 L 471.95 352.821 C 472.099 360.399 470.307 367.888 466.746 374.577 C 462.895 381.345 457.243 386.913 450.418 390.66 C 391.287 424.688 332.188 458.765 273.124 492.89 C 257.185 502.094 241.755 501.768 225.938 492.421 C 202.426 478.543 84.666 411.089 49.582 390.681 C 42.757 386.933 37.106 381.366 33.254 374.598 C 29.694 367.908 27.901 360.419 28.05 352.841 L 28.05 147.117 C 28.05 130.463 35.071 117.646 49.521 109.279 C 84.604 88.93 202.345 21.396 225.857 7.579 C 241.673 -1.768 257.103 -2.094 273.022 7.11 C 332.142 41.126 391.238 75.189 450.316 109.299 C 456.98 112.978 462.529 118.385 466.379 124.952 C 470.093 131.747 471.956 139.396 471.787 147.137 L 471.95 147.137 Z M 258.49 333.085 C 228.783 333.126 201.41 316.993 187.059 290.981 C 186.338 289.702 185.656 288.395 185.018 287.063 C 157.671 230.585 201.718 165.684 264.303 170.241 C 286.56 171.862 307.178 182.535 321.351 199.773 C 322.432 201.079 323.392 202.446 324.474 203.855 C 324.963 204.528 325.453 205.201 325.903 205.895 L 397.477 164.669 C 395.736 161.866 393.911 159.144 392.007 156.506 C 391.008 155.097 389.967 153.75 388.987 152.423 C 312.416 52.952 156.877 73.67 109.016 189.719 C 90.643 234.267 92.915 284.657 115.218 327.371 C 115.912 328.678 116.626 329.963 117.259 331.249 C 177.85 438.154 330.421 442.189 396.579 338.637 L 326.596 296.329 C 311.544 319.281 285.937 333.1 258.49 333.085 Z" style="fill: currentcolor;" id="object-0" transform="matrix(1, 0, 0, 1, 0, 7.105427357601002e-15)"/></svg>