<?xml version="1.0" encoding="utf-8"?>
<svg xmlns="http://www.w3.org/2000/svg" viewBox="0 0 500 500" xmlns:bx="https://boxy-svg.com" width="500px" height="500px"><defs><bx:export><bx:file format="svg"/></bx:export></defs><path d="M 470.78 352.228 C 470.777 360.392 469.065 367.622 465.62 373.855 C 462.073 380.261 456.69 385.623 449.404 389.839 C 390.611 423.734 331.767 457.524 273 491.455 C 257.152 500.605 241.793 500.273 226.06 490.99 C 202.668 477.188 85.508 410.079 50.598 389.86 C 43.313 385.642 37.929 380.283 34.382 373.872 C 30.931 367.638 29.223 360.409 29.22 352.247 C 29.243 284.08 29.22 215.917 29.243 147.751 C 29.246 131.197 36.24 118.46 50.617 110.139 C 85.525 89.92 202.67 22.805 226.066 9.006 C 241.793 -0.272 257.152 -0.604 272.996 8.542 C 331.76 42.472 390.601 76.263 449.385 110.157 C 456.506 114.281 461.816 119.497 465.361 125.721 C 468.969 132.049 470.755 139.423 470.758 147.768 C 470.78 215.934 470.78 352.228 470.78 352.228 Z M 458.939 241.441 L 442.143 241.441 L 442.143 224.644 L 425.344 224.644 L 425.344 241.441 L 408.548 241.441 L 408.548 258.235 L 425.344 258.235 L 425.344 275.035 L 442.143 275.035 L 442.143 258.235 L 458.939 258.235 L 458.939 241.441 Z M 397.649 241.441 L 380.855 241.441 L 380.855 224.644 L 364.058 224.644 L 364.058 241.441 L 347.262 241.441 L 347.262 258.235 L 364.058 258.235 L 364.058 275.035 L 380.855 275.035 L 380.855 258.235 L 397.649 258.235 L 397.649 241.441 Z M 313.627 285.801 C 301.105 308.009 277.31 323.017 250 323.017 C 222.858 323.017 199.198 308.196 186.612 286.225 C 180.289 275.2 176.968 262.707 176.981 249.997 C 176.981 209.673 209.674 176.982 250 176.982 C 276.967 176.982 300.502 191.617 313.15 213.365 L 376.973 176.614 C 351.607 132.825 304.245 103.364 250 103.364 C 169.015 103.364 103.364 169.017 103.364 249.997 C 103.364 276.567 110.432 301.482 122.784 322.971 C 148.088 366.993 195.584 396.634 250 396.634 C 304.517 396.634 352.086 366.874 377.353 322.723 L 313.627 285.801 Z" fill="currentColor" style=""/><g/></svg>
